<svg width="16" height="16" viewBox="0 0 16 16" fill="none" xmlns="http://www.w3.org/2000/svg">
<path d="M7.5 -0.1H7.4V0V1.42691C4.23366 1.71229 1.71229 4.23366 1.42691 7.4H0H-0.1V7.5V8.5V8.6H0H1.42691C1.71229 11.7663 4.23366 14.2877 7.4 14.5731V16V16.1H7.5H8.5H8.6V16V14.5731C11.7663 14.2877 14.2877 11.7663 14.5731 8.6H16H16.1V8.5V7.5V7.4H16H14.5731C14.2877 4.23366 11.7663 1.71229 8.6 1.42691V0V-0.1H8.5H7.5ZM7.4 13.3671C4.8971 13.0904 2.90958 11.1029 2.63295 8.6H6.5H6.6V8.5V7.5V7.4H6.5H2.63295C2.90958 4.8971 4.8971 2.90958 7.4 2.63295V6.5V6.6H7.5H8.5H8.6V6.5V2.63295C11.1029 2.90958 13.0904 4.8971 13.3671 7.4H9.5H9.4V7.5V8.5V8.6H9.5H13.3671C13.0904 11.1029 11.1029 13.0904 8.6 13.3671V9.5V9.4H8.5H7.5H7.4V9.5V13.3671Z" fill="white" stroke="black" stroke-width="0.2"/>
</svg>
