<?xml version="1.0" encoding="utf-8"?>
<svg version="1.0" width="1116.000000pt" height="379.000000pt" viewBox="0 0 1116.000000 379.000000" preserveAspectRatio="xMidYMid meet" xmlns="http://www.w3.org/2000/svg">
  <g transform="translate(0.000000,379.000000) scale(0.100000,-0.100000)" fill="#000000" stroke="none">
    <path d="M5310 3754 c-19 -2 -80 -9 -135 -15 -390 -40 -803 -154 -1168 -320 -590 -269 -1122 -727 -1503 -1295 -96 -144 -126 -215 -132 -321 -11 -194 101 -378 432 -708 301 -300 612 -515 1016 -700 891 -410 1797 -489 2788 -245 685 169 1234 456 1717 897 312 285 465 524 465 721 -1 202 -173 488 -495 821 -592 612 -1437 1036 -2285 1147 -118 15 -612 28 -700 18z m-711 -651 c-150 -164 -242 -374 -280 -634 -19 -138 -14 -463 10 -599 53 -300 183 -550 408 -781 128 -131 244 -219 383 -289 207 -104 381 -148 625 -157 240 -8 427 24 645 113 325 132 624 413 775 728 202 425 198 866 -13 1298 l-38 77 26 -6 c60 -14 233 -88 325 -140 421 -235 732 -555 801 -825 21 -81 12 -150 -32 -236 -175 -347 -736 -747 -1371 -978 -609 -221 -1384 -283 -2046 -165 -482 86 -1046 331 -1434 623 -191 143 -435 401 -498 528 -39 77 -44 165 -15 242 38 102 179 297 336 467 313 338 887 675 1314 770 139 31 141 31 79 -36z m986 -428 c28 -8 79 -32 113 -54 185 -120 270 -307 229 -505 -37 -181 -140 -296 -324 -363 -182 -66 -365 -25 -498 111 -144 148 -184 363 -100 551 93 211 347 324 580 260z" style="fill: rgb(204, 204, 204);"/>
    <path d="M45 475 c-35 -34 -35 -96 0 -130 l24 -25 1021 0 c750 0 1027 3 1043 11 32 17 37 28 37 82 0 34 -6 53 -20 67 -20 20 -33 20 -1050 20 l-1031 0 -24 -25z" style="fill: rgb(204, 204, 204);"/>
    <path d="M8999 479 c-18 -18 -21 -30 -17 -77 3 -38 11 -59 23 -68 16 -12 199 -14 1046 -14 1023 0 1026 0 1053 21 22 17 26 28 26 69 0 41 -4 52 -26 69 -27 21 -30 21 -1055 21 l-1029 0 -21 -21z" style="fill: rgb(204, 204, 204);"/>
    <path d="M63 210 c-32 -13 -46 -47 -40 -97 9 -85 -91 -78 1072 -78 l1034 0 22 22 c32 31 31 109 0 135 -22 17 -66 18 -1001 18 -537 0 -997 2 -1021 5 -24 3 -54 1 -66 -5z" style="fill: rgb(204, 204, 204);"/>
    <path d="M9000 190 c-14 -14 -20 -33 -20 -65 0 -58 25 -82 94 -90 28 -3 494 -5 1034 -3 l984 3 19 24 c26 32 26 104 -1 131 -20 20 -33 20 -1055 20 -1022 0 -1035 0 -1055 -20z" style="fill: rgb(204, 204, 204);"/>
  </g>
</svg>